<?xml version="1.0" encoding="UTF-8"?><svg id="a" xmlns="http://www.w3.org/2000/svg" xmlns:xlink="http://www.w3.org/1999/xlink" viewBox="0 0 31.2 30.9"><defs><style>.c{fill:url(#b);}.d{fill:#1a1f71;}</style><linearGradient id="b" x1=".51" y1="15.41" x2="30.79" y2="15.41" gradientTransform="matrix(1, 0, 0, 1, 0, 0)" gradientUnits="userSpaceOnUse"><stop offset="0" stop-color="#fa9b00"/><stop offset="1" stop-color="#f4ca12"/></linearGradient></defs><circle class="c" cx="15.65" cy="15.41" r="15.14"/><path class="d" d="M16.25,.28h-1.61C6.65,.8,.42,7.43,.42,15.45s6.31,14.74,14.4,15.17h1.43c8.15-.34,14.54-7,14.54-15.17S24.4,.62,16.25,.28Zm12.35,16.69c-.27,2.28-1.12,4.44-2.5,6.29-.89-.6-1.84-1.12-2.83-1.55,.54-1.52,.88-3.11,1.01-4.73h4.33Zm-3.91,7.88c-1.47,1.42-3.27,2.48-5.22,3.09,1.2-1.29,2.2-2.73,2.97-4.3,.78,.34,1.53,.75,2.25,1.21Zm-2.53-7.88c-.12,1.37-.42,2.72-.88,4-1.5-.46-3.05-.73-4.63-.79v-3.2h5.51Zm.62-8.99c-.81-1.84-1.94-3.55-3.32-5.04,2.19,.68,4.18,1.92,5.75,3.62-.77,.54-1.58,1.02-2.42,1.42Zm-6.13,6.89v-3.24c1.67-.08,3.31-.38,4.9-.9,.4,1.34,.62,2.73,.67,4.14h-5.57Zm4.17-6.11c-1.35,.44-2.75,.69-4.17,.77V3.16c1.79,1.56,3.22,3.47,4.17,5.6Zm-4.17,18.98v-5.45c1.29,.06,2.57,.28,3.8,.64-.93,1.81-2.23,3.45-3.8,4.82Zm12.02-12.87h-4.34c-.05-1.67-.32-3.32-.81-4.91,1.05-.48,2.05-1.07,2.99-1.74,1.32,1.98,2.07,4.26,2.17,6.65ZM10.68,23.08c1.25-.41,2.55-.66,3.87-.76v5.56c-1.59-1.35-2.91-2.99-3.87-4.8Zm-3.08-13.36c-.54,1.66-.83,3.4-.89,5.16H2.53c.1-2.47,.9-4.83,2.31-6.86,.87,.65,1.8,1.22,2.76,1.7Zm2.7-1.13c.98-2.12,2.43-4.03,4.25-5.57v6.48c-1.45-.11-2.88-.42-4.25-.91Zm-1.58,15.27c.75,1.46,1.68,2.8,2.79,4.01-1.78-.59-3.44-1.57-4.82-2.85,.64-.43,1.32-.82,2.03-1.16Zm5.83-6.88v3.23c-1.62,.11-3.2,.42-4.73,.94-.49-1.33-.81-2.73-.94-4.16h5.66Zm-7.77,0c.14,1.71,.5,3.37,1.09,4.95-.92,.43-1.79,.94-2.61,1.51-1.47-1.89-2.37-4.1-2.65-6.46H6.78Zm7.77-5.38v3.27h-5.73c.05-1.47,.29-2.93,.73-4.32,1.61,.58,3.29,.93,5,1.05ZM6.17,6.39c1.49-1.54,3.33-2.7,5.35-3.37-1.29,1.41-2.36,3.02-3.15,4.73-.76-.39-1.5-.85-2.2-1.36Z"/></svg>