<?xml version="1.0" encoding="UTF-8"?><svg id="a" xmlns="http://www.w3.org/2000/svg" xmlns:xlink="http://www.w3.org/1999/xlink" viewBox="0 0 31.37 31.73"><defs><style>.c{fill:url(#b);}.d{fill:#fff;}.e{fill:#1a1f71;}</style><linearGradient id="b" x1="0" y1="20.08" x2="31.37" y2="20.08" gradientTransform="matrix(1, 0, 0, 1, 0, 0)" gradientUnits="userSpaceOnUse"><stop offset="0" stop-color="#fa9b00"/><stop offset="1" stop-color="#f4ca12"/></linearGradient></defs><rect class="c" y="8.43" width="31.37" height="23.3" rx="4.22" ry="4.22"/><rect class="d" x="0" y="18.18" width="31.37" height="1.88"/><g><rect class="d" x="13.2" y="16.62" width="4.97" height="4.97"/><path class="e" d="M18.92,22.33h-6.47v-6.47h6.47v6.47Zm-4.97-1.5h3.47v-3.47h-3.47v3.47Z"/></g><path class="e" d="M23.8,2.61C18.67,.18,12.7,.18,7.57,2.61c-1.33,.63-1.84,2.04-1.23,2.92,.56,.81,1.67,1.03,2.64,.69v2.21h1.94v-2.98c3.09-1.03,6.44-1.03,9.53,0v2.98h1.94v-2.21c.96,.34,2.08,.12,2.64-.69,.61-.88,.1-2.29-1.23-2.92Z"/></svg>