<?xml version="1.0" encoding="UTF-8"?><svg id="a" xmlns="http://www.w3.org/2000/svg" xmlns:xlink="http://www.w3.org/1999/xlink" viewBox="0 0 31.37 38"><defs><style>.e{fill:url(#d);}.f{fill:url(#c);}.g{fill:url(#b);}.h{fill:#fff;}.i{fill:#1a1f71;}</style><linearGradient id="b" x1=".89" y1="30.92" x2="30.48" y2="30.92" gradientTransform="matrix(1, 0, 0, 1, 0, 0)" gradientUnits="userSpaceOnUse"><stop offset="0" stop-color="#fa9b00"/><stop offset="1" stop-color="#f4ca12"/></linearGradient><linearGradient id="c" y1="22.97" y2="22.97" xlink:href="#b"/><linearGradient id="d" y1="15.03" y2="15.03" xlink:href="#b"/></defs><g><ellipse class="g" cx="15.68" cy="30.92" rx="14.8" ry="5.93"/><path class="h" d="M15.68,25.48c7.9,0,14.3,2.43,14.3,5.43s-6.4,5.43-14.3,5.43S1.39,33.92,1.39,30.92s6.4-5.43,14.3-5.43m0-1c-7.42,0-15.3,2.25-15.3,6.43s7.88,6.43,15.3,6.43,15.3-2.25,15.3-6.43-7.88-6.43-15.3-6.43h0Z"/></g><g><ellipse class="f" cx="15.68" cy="22.97" rx="14.8" ry="5.93"/><path class="h" d="M15.68,17.54c7.9,0,14.3,2.43,14.3,5.43s-6.4,5.43-14.3,5.43S1.39,25.97,1.39,22.97s6.4-5.43,14.3-5.43m0-1c-7.42,0-15.3,2.25-15.3,6.43s7.88,6.43,15.3,6.43,15.3-2.25,15.3-6.43-7.88-6.43-15.3-6.43h0Z"/></g><g><ellipse class="e" cx="15.68" cy="15.03" rx="14.8" ry="5.93"/><path class="h" d="M15.68,9.6c7.9,0,14.3,2.43,14.3,5.43s-6.4,5.43-14.3,5.43S1.39,18.03,1.39,15.03s6.4-5.43,14.3-5.43m0-1C8.27,8.6,.39,10.85,.39,15.03s7.88,6.43,15.3,6.43,15.3-2.25,15.3-6.43-7.88-6.43-15.3-6.43h0Z"/></g><g><ellipse class="i" cx="15.68" cy="7.08" rx="14.8" ry="5.93"/><path class="h" d="M15.68,1.65c7.9,0,14.3,2.43,14.3,5.43s-6.4,5.43-14.3,5.43S1.39,10.08,1.39,7.08,7.79,1.65,15.68,1.65m0-1C8.27,.65,.39,2.91,.39,7.08s7.88,6.43,15.3,6.43,15.3-2.25,15.3-6.43S23.1,.65,15.68,.65h0Z"/></g></svg>