<?xml version="1.0" encoding="UTF-8"?><svg id="a" xmlns="http://www.w3.org/2000/svg" xmlns:xlink="http://www.w3.org/1999/xlink" viewBox="0 0 31.37 31.73"><defs><style>.e{fill:url(#d);}.f{fill:url(#c);}.g{fill:url(#b);}.h{fill:#fff;}.i{fill:#1a1f71;}</style><linearGradient id="b" x1="4.43" y1="20.2" x2="31.37" y2="20.2" gradientTransform="matrix(1, 0, 0, 1, 0, 0)" gradientUnits="userSpaceOnUse"><stop offset="0" stop-color="#fa9b00"/><stop offset="1" stop-color="#f4ca12"/></linearGradient><linearGradient id="c" y1="5.57" y2="5.57" xlink:href="#b"/><linearGradient id="d" x1="0" y1="17.85" x2="28.54" y2="17.85" xlink:href="#b"/></defs><rect class="g" x="4.43" y="11.72" width="26.94" height="16.96"/><rect class="f" x="4.43" y="1.02" width="26.94" height="9.1"/><polygon class="e" points="3.05 30.09 3.05 3.97 0 3.97 0 31.73 1.31 31.73 3.05 31.73 28.54 31.73 28.54 30.09 3.05 30.09"/><circle class="h" cx="9.85" cy="5.57" r="2.33"/><circle class="h" cx="25.95" cy="5.57" r="2.33"/><rect class="i" x="8.82" width="2.07" height="5.99"/><rect class="i" x="24.92" width="2.07" height="5.99"/><g><rect class="h" x="15.42" y="15.94" width="4.97" height="4.97"/><path class="i" d="M21.14,21.66h-6.47v-6.47h6.47v6.47Zm-4.97-1.5h3.47v-3.47h-3.47v3.47Z"/></g><polygon class="i" points="21.94 26.75 17.9 22.71 13.86 26.75 14.92 27.81 17.15 25.58 17.15 31.73 18.65 31.73 18.65 25.58 20.88 27.81 21.94 26.75"/><polygon class="h" points="3.05 3.97 4.43 3.97 4.43 10.12 31.37 10.12 31.37 11.72 4.43 11.72 4.43 28.68 17.15 28.68 17.15 30.09 3.05 30.09 3.05 3.97"/><rect class="h" x="18.65" y="28.68" width="9.89" height="1.41"/></svg>