<?xml version="1.0" encoding="UTF-8"?><svg id="a" xmlns="http://www.w3.org/2000/svg" xmlns:xlink="http://www.w3.org/1999/xlink" viewBox="0 0 45 32"><defs><style>.d{fill:url(#c);}.e{fill:url(#b);}.f{fill:#fff;}.g{fill:#1a1f71;}</style><linearGradient id="b" x1=".21" y1="11.34" x2="39.29" y2="11.34" gradientTransform="matrix(1, 0, 0, 1, 0, 0)" gradientUnits="userSpaceOnUse"><stop offset="0" stop-color="#fa9b00"/><stop offset="1" stop-color="#f4ca12"/></linearGradient><linearGradient id="c" x1="5.71" y1="20.66" x2="44.79" y2="20.66" xlink:href="#b"/></defs><g><path class="e" d="M39.22,3.07l.07,16.39s0,.09,0,.13c-.06,.86-.78,1.55-1.67,1.55l-35.66,.15c-.88,0-1.61-.67-1.68-1.54,0-.04,0-.09,0-.13L.21,3.23s0-.04,0-.06c.03-.9,.76-1.62,1.67-1.63l35.66-.15c.91,0,1.65,.71,1.68,1.61,0,.02,0,.04,0,.06Z"/><path class="g" d="M39.22,3.01c-.03-.9-.78-1.62-1.68-1.61l-5.48,.02-24.71,.1-5.48,.02c-.91,0-1.64,.73-1.67,1.63,0,.02,0,.04,0,.06l.02,4.5,.03,7.4h0l.02,4.5s0,.04,0,.06h0s0,.05,0,.08h0v.02s0,.05,0,.07v.02s0,.04,.01,.06v.03s.01,.03,.02,.05v.03l.02,.05v.03l.02,.04v.03l.03,.04v.04l.03,.04,.02,.04,.02,.04,.02,.04,.02,.03,.02,.03,.02,.03,.02,.03,.02,.03,.02,.03,.02,.03,.03,.03,.02,.03,.03,.03,.02,.03,.03,.03,.03,.03,.03,.03,.03,.02,.03,.03,.03,.02,.03,.03,.03,.02,.03,.02,.03,.02,.03,.02,.03,.02,.03,.02,.03,.02,.03,.02,.04,.02,.04,.02,.04,.02,.04,.02h.04l.04,.03h.04l.04,.02h.04l.04,.02h.04l.04,.02h.08l.05,.02h.03s.04,0,.05,0h.03s.06,0,.08,0h0l5.48-.02,24.71-.1,5.48-.02s.06,0,.08,0h.03s.04,0,.06,0h.08l.03-.02h.05l.04-.02h.04l.04-.02h.04l.04-.02h.04l.04-.03,.04-.02h.03l.04-.03,.03-.02,.04-.02,.03-.02,.03-.02,.03-.02,.03-.02,.03-.02,.03-.02,.03-.02,.03-.02,.03-.02,.03-.03,.03-.03,.03-.03,.03-.03,.03-.03,.03-.03,.03-.03,.03-.03,.02-.03,.02-.03,.02-.03,.02-.03,.02-.03,.02-.03,.02-.03,.02-.03,.02-.04,.02-.03,.02-.04,.02-.03,.02-.04v-.03l.03-.04v-.03l.03-.04v-.03l.02-.05v-.03l.02-.05v-.03s.01-.04,.01-.06v-.02s0-.05,.01-.07h0v-.02s0-.05,0-.08h0s0-.04,0-.06h0l-.02-4.5-.03-7.4-.02-4.5s0-.04,0-.06Zm-1.7,12.36c-.66,.23-1.31,.56-1.94,.97-1.3,.86-2.27,1.99-2.87,3.19l-25.85,.11c-.61-1.2-1.59-2.31-2.9-3.17-.76-.49-1.55-.85-2.35-1.08l-.03-7.95c.79-.24,1.59-.6,2.34-1.1,1.3-.86,2.28-1.99,2.88-3.2l25.84-.11c.61,1.2,1.6,2.32,2.9,3.17,.63,.41,1.29,.73,1.95,.96l.03,8.2Z"/><path class="g" d="M14.91,16.62c-.18-.15-.36-.31-.53-.48-1.4-1.39-2.18-3.24-2.18-5.21-.02-4.07,3.28-7.4,7.36-7.42,4.07-.02,7.4,3.28,7.42,7.36,0,1.97-.75,3.83-2.14,5.23-1.39,1.4-3.24,2.18-5.21,2.18-1.73,0-3.37-.58-4.7-1.66ZM24.11,5.35c-1.24-1.02-2.83-1.62-4.56-1.62-1.91,0-3.71,.76-5.06,2.12-1.35,1.36-2.09,3.16-2.08,5.07,0,1.91,.76,3.71,2.12,5.06,1.36,1.35,3.16,2.09,5.07,2.08,1.91,0,3.71-.76,5.06-2.12,1.35-1.36,2.09-3.16,2.08-5.07h0c0-2.22-1.03-4.21-2.63-5.52Z"/><circle class="g" cx="19.58" cy="10.89" r="6.36" transform="translate(2.44 25.32) rotate(-69.18)"/><path class="f" d="M18.91,14.96c-.91-.04-1.78-.24-2.62-.6v-2.06c.47,.24,.99,.44,1.56,.6,.56,.16,1.06,.24,1.48,.24,.35,0,.61-.04,.77-.13,.16-.09,.24-.23,.24-.43,0-.14-.06-.25-.18-.35-.12-.09-.32-.2-.59-.32-.28-.12-.65-.26-1.12-.43-.53-.19-.95-.41-1.27-.65-.32-.24-.56-.51-.71-.81-.15-.3-.22-.67-.22-1.12,0-.68,.21-1.22,.65-1.6,.44-.39,1.09-.63,1.97-.72v-1.38h1.28v1.36c.83,.04,1.66,.24,2.5,.6l-.73,1.77c-.87-.39-1.65-.58-2.34-.57-.33,0-.56,.04-.7,.12-.13,.08-.2,.2-.2,.36,0,.14,.05,.25,.15,.34,.1,.09,.27,.19,.51,.3,.24,.11,.57,.23,1,.38,.87,.3,1.49,.65,1.87,1.04,.38,.39,.57,.89,.57,1.51,0,.69-.22,1.26-.65,1.7-.44,.44-1.08,.71-1.92,.81v1.66h-1.28v-1.62Z"/></g><g><path class="d" d="M44.73,12.38l.07,16.39s0,.09,0,.13c-.06,.86-.78,1.55-1.67,1.55l-35.66,.15c-.88,0-1.61-.67-1.68-1.54,0-.04,0-.09,0-.13l-.07-16.39s0-.04,0-.06c.03-.9,.76-1.62,1.67-1.63l35.66-.15c.91,0,1.65,.71,1.68,1.61,0,.02,0,.04,0,.06Z"/><path class="g" d="M44.73,12.32c-.03-.9-.78-1.62-1.68-1.61l-5.48,.02-24.71,.1-5.48,.02c-.91,0-1.64,.73-1.67,1.63,0,.02,0,.04,0,.06l.02,4.5,.03,7.4h0l.02,4.5s0,.04,0,.06h0s0,.05,0,.08h0v.02s0,.05,0,.07v.02s0,.04,.01,.06v.03s.01,.03,.02,.05v.03l.02,.05v.03l.02,.04v.03l.03,.04v.04l.03,.04,.02,.04,.02,.04,.02,.04,.02,.03,.02,.03,.02,.03,.02,.03,.02,.03,.02,.03,.02,.03,.03,.03,.02,.03,.03,.03,.02,.03,.03,.03,.03,.03,.03,.03,.03,.02,.03,.03,.03,.02,.03,.03,.03,.02,.03,.02,.03,.02,.03,.02,.03,.02,.03,.02,.03,.02,.03,.02,.04,.02,.04,.02,.04,.02,.04,.02h.04l.04,.03h.04l.04,.02h.04l.04,.02h.04l.04,.02h.08l.05,.02h.03s.04,0,.05,0h.03s.06,0,.08,0h0l5.48-.02,24.71-.1,5.48-.02s.06,0,.08,0h.03s.04,0,.06,0h.08l.03-.02h.05l.04-.02h.04l.04-.02h.04l.04-.02h.04l.04-.03,.04-.02h.03l.04-.03,.03-.02,.04-.02,.03-.02,.03-.02,.03-.02,.03-.02,.03-.02,.03-.02,.03-.02,.03-.02,.03-.02,.03-.03,.03-.03,.03-.03,.03-.03,.03-.03,.03-.03,.03-.03,.03-.03,.02-.03,.02-.03,.02-.03,.02-.03,.02-.03,.02-.03,.02-.03,.02-.03,.02-.04,.02-.03,.02-.04,.02-.03,.02-.04v-.03l.03-.04v-.03l.03-.04v-.03l.02-.05v-.03l.02-.05v-.03s.01-.04,.01-.06v-.02s0-.05,.01-.07h0v-.02s0-.05,0-.08h0s0-.04,0-.06h0l-.02-4.5-.03-7.4-.02-4.5s0-.04,0-.06Zm-1.7,12.36c-.66,.23-1.31,.56-1.94,.97-1.3,.86-2.27,1.99-2.87,3.19l-25.85,.11c-.61-1.2-1.59-2.31-2.9-3.17-.76-.49-1.55-.85-2.35-1.08l-.03-7.95c.79-.24,1.59-.6,2.34-1.1,1.3-.86,2.28-1.99,2.88-3.2l25.84-.11c.61,1.2,1.6,2.32,2.9,3.17,.63,.41,1.29,.73,1.95,.96l.03,8.2Z"/><path class="g" d="M20.42,25.93c-.18-.15-.36-.31-.53-.48-1.4-1.39-2.18-3.24-2.18-5.21-.02-4.07,3.28-7.4,7.36-7.42,4.07-.02,7.4,3.28,7.42,7.36,0,1.97-.75,3.83-2.14,5.23-1.39,1.4-3.24,2.18-5.21,2.18-1.73,0-3.37-.58-4.7-1.66Zm9.2-11.27c-1.24-1.02-2.83-1.62-4.56-1.62-1.91,0-3.71,.76-5.06,2.12-1.35,1.36-2.09,3.16-2.08,5.07,0,1.91,.76,3.71,2.12,5.06,1.36,1.35,3.16,2.09,5.07,2.08,1.91,0,3.71-.76,5.06-2.12,1.35-1.36,2.09-3.16,2.08-5.07h0c0-2.22-1.03-4.21-2.63-5.52Z"/><circle class="g" cx="25.09" cy="20.2" r="6.36" transform="translate(-2.71 36.47) rotate(-69.18)"/><path class="f" d="M24.42,24.27c-.91-.04-1.78-.24-2.62-.6v-2.06c.47,.24,.99,.44,1.56,.6,.56,.16,1.06,.24,1.48,.24,.35,0,.61-.04,.77-.13,.16-.09,.24-.23,.24-.43,0-.14-.06-.25-.18-.35-.12-.09-.32-.2-.59-.32-.28-.12-.65-.26-1.12-.43-.53-.19-.95-.41-1.27-.65-.32-.24-.56-.51-.71-.81-.15-.3-.22-.67-.22-1.12,0-.68,.21-1.22,.65-1.6,.44-.39,1.09-.63,1.97-.72v-1.38h1.28v1.36c.83,.04,1.66,.24,2.5,.6l-.73,1.77c-.87-.39-1.65-.58-2.34-.57-.33,0-.56,.04-.7,.12-.13,.08-.2,.2-.2,.36,0,.14,.05,.25,.15,.34,.1,.09,.27,.19,.51,.3,.24,.11,.57,.23,1,.38,.87,.3,1.49,.65,1.87,1.04,.38,.39,.57,.89,.57,1.51,0,.69-.22,1.26-.65,1.7-.44,.44-1.08,.71-1.92,.81v1.66h-1.28v-1.62Z"/></g></svg>