<?xml version="1.0" encoding="UTF-8"?><svg id="a" xmlns="http://www.w3.org/2000/svg" xmlns:xlink="http://www.w3.org/1999/xlink" viewBox="0 0 47 38"><defs><style>.h{fill:url(#e);}.i{fill:url(#d);}.j{fill:url(#g);}.k{fill:url(#f);}.l{fill:url(#c);}.m{fill:url(#b);}.n{fill:#1a1f71;}</style><linearGradient id="b" x1="2.56" y1="23.97" x2="13.86" y2="23.97" gradientTransform="matrix(1, 0, 0, 1, 0, 0)" gradientUnits="userSpaceOnUse"><stop offset="0" stop-color="#fa9b00"/><stop offset="1" stop-color="#f4ca12"/></linearGradient><linearGradient id="c" x1=".23" y1="34.21" x2="16.19" y2="34.21" xlink:href="#b"/><linearGradient id="d" x1="17.89" y1="5.93" x2="29.18" y2="5.93" xlink:href="#b"/><linearGradient id="e" x1="15.56" y1="16.17" x2="31.51" y2="16.17" xlink:href="#b"/><linearGradient id="f" x1="33.14" y1="23.9" x2="44.44" y2="23.9" xlink:href="#b"/><linearGradient id="g" x1="30.81" y1="34.14" x2="46.77" y2="34.14" xlink:href="#b"/></defs><g><circle class="m" cx="8.21" cy="23.97" r="5.65"/><path class="l" d="M3.2,30.71H13.21c1.64,0,2.97,1.33,2.97,2.97v4.04H.23v-4.04c0-1.64,1.33-2.97,2.97-2.97Z"/></g><g><circle class="i" cx="23.54" cy="5.93" r="5.65"/><path class="h" d="M18.53,12.66h10.01c1.64,0,2.97,1.33,2.97,2.97v4.04H15.56v-4.04c0-1.64,1.33-2.97,2.97-2.97Z"/></g><g><circle class="k" cx="38.79" cy="23.9" r="5.65"/><path class="j" d="M33.79,30.64h10.01c1.64,0,2.97,1.33,2.97,2.97v4.04h-15.96v-4.04c0-1.64,1.33-2.97,2.97-2.97Z"/></g><rect class="n" x="22.86" y="21.95" width="1.66" height="7.28" rx=".83" ry=".83"/><rect class="n" x="25.37" y="26.58" width="1.66" height="7.27" rx=".83" ry=".83" transform="translate(-13.76 31.88) rotate(-51.46)"/><rect class="n" x="20.35" y="26.58" width="1.66" height="7.27" rx=".83" ry=".83" transform="translate(31.62 -5.17) rotate(51.46)"/></svg>