<?xml version="1.0" encoding="UTF-8"?><svg id="a" xmlns="http://www.w3.org/2000/svg" xmlns:xlink="http://www.w3.org/1999/xlink" viewBox="0 0 31.37 31.73"><defs><style>.e{fill:url(#d);}.f{fill:url(#c);}.g{fill:url(#b);}.h{fill:#fff;}.i{fill:#1a1f71;}</style><linearGradient id="b" x1="4.43" y1="20.2" x2="31.37" y2="20.2" gradientTransform="matrix(1, 0, 0, 1, 0, 0)" gradientUnits="userSpaceOnUse"><stop offset="0" stop-color="#fa9b00"/><stop offset="1" stop-color="#f4ca12"/></linearGradient><linearGradient id="c" y1="5.57" y2="5.57" xlink:href="#b"/><linearGradient id="d" x1="0" y1="17.85" x2="28.54" y2="17.85" xlink:href="#b"/></defs><rect class="g" x="4.43" y="11.72" width="26.94" height="16.96"/><rect class="f" x="4.43" y="1.02" width="26.94" height="9.1"/><polygon class="e" points="3.05 30.09 3.05 3.97 0 3.97 0 31.73 1.31 31.73 3.05 31.73 28.54 31.73 28.54 30.09 3.05 30.09"/><circle class="h" cx="9.85" cy="5.57" r="2.33"/><circle class="h" cx="25.95" cy="5.57" r="2.33"/><rect class="i" x="8.82" y="0" width="2.07" height="5.99"/><rect class="i" x="24.92" y="0" width="2.07" height="5.99"/><path class="i" d="M10.6,26.38h-1.5v-1.5h1.5v1.5Z"/><path class="i" d="M10.6,26.38h-1.5v-1.5h1.5v1.5Z"/><path class="i" d="M10.6,23.67h-1.5v-1.5h1.5v1.5Z"/><path class="i" d="M10.6,20.96h-1.5v-1.5h1.5v1.5Z"/><path class="i" d="M26.7,18.24h-1.5v-1.5h1.5v1.5Z"/><path class="i" d="M26.7,15.53h-1.5v-1.5h1.5v1.5Z"/><g><path class="i" d="M14.63,26.38h-1.5v-1.5h1.5v1.5Z"/><path class="i" d="M14.63,23.67h-1.5v-1.5h1.5v1.5Z"/><path class="i" d="M14.63,20.96h-1.5v-1.5h1.5v1.5Z"/><path class="i" d="M14.63,18.24h-1.5v-1.5h1.5v1.5Z"/><path class="i" d="M14.63,15.53h-1.5v-1.5h1.5v1.5Z"/></g><g><path class="i" d="M18.65,26.38h-1.5v-1.5h1.5v1.5Z"/><path class="i" d="M18.65,23.67h-1.5v-1.5h1.5v1.5Z"/><path class="i" d="M18.65,20.96h-1.5v-1.5h1.5v1.5Z"/><path class="i" d="M18.65,18.24h-1.5v-1.5h1.5v1.5Z"/><path class="i" d="M18.65,15.53h-1.5v-1.5h1.5v1.5Z"/></g><g><path class="i" d="M22.68,26.38h-1.5v-1.5h1.5v1.5Z"/><path class="i" d="M22.68,23.67h-1.5v-1.5h1.5v1.5Z"/><path class="i" d="M22.68,20.96h-1.5v-1.5h1.5v1.5Z"/><path class="i" d="M22.68,18.24h-1.5v-1.5h1.5v1.5Z"/><path class="i" d="M22.68,15.53h-1.5v-1.5h1.5v1.5Z"/></g><polygon class="h" points="3.05 3.97 4.43 3.97 4.43 10.12 31.37 10.12 31.37 11.72 4.43 11.72 4.43 28.68 28.54 28.68 28.54 30.09 3.05 30.09 3.05 3.97"/></svg>