<?xml version="1.0" encoding="UTF-8"?><svg id="a" xmlns="http://www.w3.org/2000/svg" xmlns:xlink="http://www.w3.org/1999/xlink" viewBox="0 0 28 36"><defs><style>.c{fill:url(#b);}.d{fill:#fff;}.e{fill:#1a1f71;}</style><linearGradient id="b" x1="0" y1="18" x2="28" y2="18" gradientTransform="matrix(1, 0, 0, 1, 0, 0)" gradientUnits="userSpaceOnUse"><stop offset="0" stop-color="#fa9b00"/><stop offset="1" stop-color="#f4ca12"/></linearGradient></defs><polygon class="c" points="28 36 0 36 0 0 18.84 0 28 9.2 28 36"/><polygon class="e" points="28 9.2 18.8 9.2 18.84 0 28 9.2"/><rect class="d" x="12.75" y="12.47" width="10.36" height="3.1"/><rect class="d" x="12.75" y="17.35" width="10.36" height="3.1"/><rect class="d" x="12.75" y="23.95" width="10.36" height="3.1"/><rect class="d" x="12.75" y="28.82" width="10.36" height="3.1"/><path class="d" d="M6.91,19.76c-1.8,0-3.27-1.47-3.27-3.27s1.47-3.27,3.27-3.27,3.27,1.47,3.27,3.27-1.47,3.27-3.27,3.27Zm0-4.54c-.7,0-1.27,.57-1.27,1.27s.57,1.27,1.27,1.27,1.27-.57,1.27-1.27-.57-1.27-1.27-1.27Z"/><path class="d" d="M6.91,31.24c-1.8,0-3.27-1.47-3.27-3.27s1.47-3.27,3.27-3.27,3.27,1.47,3.27,3.27-1.47,3.27-3.27,3.27Zm0-4.54c-.7,0-1.27,.57-1.27,1.27s.57,1.27,1.27,1.27,1.27-.57,1.27-1.27-.57-1.27-1.27-1.27Z"/><polygon class="e" points="13.58 10.29 7.44 16.43 4.16 13.15 2.3 15 7.44 20.14 9.3 18.29 15.43 12.15 13.58 10.29"/><polygon class="e" points="13.58 21.77 7.44 27.9 4.16 24.62 2.3 26.48 7.44 31.61 9.3 29.76 15.43 23.62 13.58 21.77"/></svg>