<?xml version="1.0" encoding="UTF-8"?><svg id="a" xmlns="http://www.w3.org/2000/svg" xmlns:xlink="http://www.w3.org/1999/xlink" viewBox="0 0 31.37 31.73"><defs><style>.c{fill:url(#b);}.d{fill:#fff;}.e{fill:#1a1f71;}</style><linearGradient id="b" x1="0" y1="15.87" x2="31.37" y2="15.87" gradientTransform="matrix(1, 0, 0, 1, 0, 0)" gradientUnits="userSpaceOnUse"><stop offset="0" stop-color="#fa9b00"/><stop offset="1" stop-color="#f4ca12"/></linearGradient></defs><rect class="c" y=".18" width="31.37" height="31.37"/><g><path class="e" d="M27.85,18.44c-.08-.12-.19-.2-.33-.23l-.89-.17c-.05-.48-.15-.97-.3-1.43l.76-.51c.24-.17,.29-.5,.14-.73l-1.32-1.94c-.08-.11-.2-.19-.34-.21-.14-.03-.27,0-.39,.08l-.74,.51c-.37-.32-.79-.59-1.23-.8l.18-.89c.05-.29-.14-.56-.42-.62l-2.31-.44c-.14-.02-.28,.01-.39,.09-.11,.07-.19,.19-.21,.33l-.17,.89c-.49,.05-.97,.15-1.43,.3l-.52-.76c-.08-.11-.19-.19-.33-.21-.14-.03-.28,0-.39,.08l-1.94,1.32c-.12,.08-.2,.19-.23,.33-.02,.15,0,.28,.08,.39l.52,.76c-.32,.37-.59,.78-.81,1.22l-.89-.17c-.14-.02-.27,0-.38,.08-.12,.08-.2,.2-.23,.34l-.44,2.31c-.06,.28,.14,.55,.42,.61l.89,.17c.05,.48,.14,.97,.29,1.43l-.74,.51c-.11,.08-.19,.2-.23,.34-.02,.14,0,.28,.08,.39l1.32,1.94c.08,.11,.2,.19,.34,.23,.14,.02,.28-.01,.39-.09l.76-.51c.37,.32,.78,.59,1.22,.8l-.17,.89c-.06,.29,.14,.56,.42,.62l2.3,.44s.07,.01,.1,.01c.25,0,.46-.18,.52-.43l.17-.89c.48-.05,.96-.15,1.43-.3l.51,.76c.08,.11,.2,.19,.34,.23,.14,.02,.27-.01,.38-.09l1.95-1.32c.24-.16,.29-.48,.14-.72l-.51-.76c.32-.37,.59-.78,.8-1.22l.89,.17c.28,.06,.56-.14,.61-.42l.44-2.31c.03-.14,0-.27-.08-.38Zm-4.78,.65c-.14,.71-.54,1.33-1.14,1.74-.6,.41-1.32,.55-2.03,.42-.71-.14-1.33-.54-1.74-1.14-.41-.6-.55-1.32-.42-2.03,.14-.71,.54-1.33,1.14-1.74,.45-.3,.97-.46,1.51-.46,.17,0,.35,.01,.52,.05,1.47,.28,2.44,1.7,2.15,3.17Z"/><path class="d" d="M23.07,19.09c-.14,.71-.54,1.33-1.14,1.74-.6,.41-1.32,.55-2.03,.42-.71-.14-1.33-.54-1.74-1.14-.41-.6-.55-1.32-.42-2.03,.14-.71,.54-1.33,1.14-1.74,.45-.3,.97-.46,1.51-.46,.17,0,.35,.01,.52,.05,1.47,.28,2.44,1.7,2.15,3.17Z"/><path class="e" d="M14.51,9.6c-.03-.21-.23-.36-.44-.34l-.68,.1c-.15-.34-.34-.65-.56-.95l.41-.54c.07-.09,.09-.19,.08-.29-.01-.1-.07-.2-.16-.26l-1.41-1.06c-.09-.07-.19-.09-.29-.08-.1,.02-.19,.08-.26,.16l-.41,.54c-.35-.12-.7-.23-1.07-.27l-.09-.68c-.03-.21-.24-.36-.45-.33l-1.75,.25c-.1,.01-.19,.07-.26,.16-.06,.08-.09,.18-.07,.28l.09,.68c-.33,.16-.65,.34-.95,.56l-.54-.41c-.08-.07-.19-.09-.29-.08-.1,.02-.19,.07-.26,.16l-1.06,1.41c-.06,.09-.09,.19-.07,.29,.01,.1,.07,.19,.15,.26l.55,.41c-.14,.35-.23,.7-.27,1.07l-.68,.09c-.1,.02-.2,.08-.26,.16-.07,.08-.09,.19-.08,.29l.25,1.75c.03,.21,.24,.36,.45,.33l.68-.09c.15,.34,.34,.65,.56,.95l-.42,.54c-.06,.09-.09,.19-.07,.29,.01,.1,.07,.19,.15,.26l1.42,1.06c.17,.12,.42,.09,.54-.08l.42-.55c.34,.14,.7,.23,1.06,.28l.1,.67c.01,.11,.07,.2,.15,.26,.07,.06,.16,.08,.24,.08h.06l1.75-.25c.21-.03,.37-.24,.34-.45l-.1-.68c.34-.15,.65-.34,.95-.55l.55,.41c.17,.12,.42,.09,.54-.08l1.06-1.42c.14-.17,.1-.42-.08-.54l-.54-.42c.14-.34,.23-.7,.27-1.06l.68-.1c.1-.01,.19-.07,.26-.15,.06-.09,.09-.19,.07-.29l-.25-1.75Zm-5.12,3.69c-1.12,.16-2.14-.62-2.31-1.73-.16-1.12,.62-2.15,1.74-2.31,.09-.01,.19-.02,.28-.02,1,0,1.87,.73,2.02,1.75,.16,1.12-.61,2.15-1.73,2.31Z"/><path class="d" d="M9.39,13.29c-1.12,.16-2.14-.62-2.31-1.73-.16-1.12,.62-2.15,1.74-2.31,.09-.01,.19-.02,.28-.02,1,0,1.87,.73,2.02,1.75,.16,1.12-.61,2.15-1.73,2.31Z"/></g></svg>