<?xml version="1.0" encoding="UTF-8"?><svg id="a" xmlns="http://www.w3.org/2000/svg" xmlns:xlink="http://www.w3.org/1999/xlink" viewBox="0 0 28 36"><defs><style>.c{fill:url(#b);}.d{fill:#fff;}.e{fill:#1a1f71;}</style><linearGradient id="b" x1="0" y1="18" x2="28" y2="18" gradientTransform="matrix(1, 0, 0, 1, 0, 0)" gradientUnits="userSpaceOnUse"><stop offset="0" stop-color="#fa9b00"/><stop offset="1" stop-color="#f4ca12"/></linearGradient></defs><polygon class="c" points="28 36 0 36 0 0 18.84 0 28 9.2 28 36"/><polygon class="e" points="28 9.2 18.8 9.2 18.84 0 28 9.2"/><rect class="d" x="4.26" y="12.47" width="19.47" height="3.1"/><rect class="d" x="4.26" y="17.35" width="19.47" height="3.1"/><rect class="d" x="4.26" y="23.94" width="10.36" height="3.1"/><rect class="d" x="4.26" y="28.82" width="10.36" height="3.1"/><g><circle class="e" cx="21.67" cy="25.88" r="3.65"/><path class="e" d="M18.43,30.23h6.47c1.06,0,1.92,.86,1.92,1.92v2.61h-10.31v-2.61c0-1.06,.86-1.92,1.92-1.92Z"/></g></svg>