<?xml version="1.0" encoding="UTF-8"?><svg id="a" xmlns="http://www.w3.org/2000/svg" xmlns:xlink="http://www.w3.org/1999/xlink" viewBox="0 0 43 34"><defs><style>.d{fill:url(#c);}.e{fill:url(#b);}.f{fill:#fff;}.g{fill:#1a1f71;}</style><linearGradient id="b" x1="12.26" y1="11.31" x2="30.91" y2="11.31" gradientTransform="matrix(1, 0, 0, 1, 0, 0)" gradientUnits="userSpaceOnUse"><stop offset="0" stop-color="#fa9b00"/><stop offset="1" stop-color="#f4ca12"/></linearGradient><linearGradient id="c" x1="8.61" y1="27.31" x2="34.55" y2="27.31" xlink:href="#b"/></defs><g><circle class="g" cx="10.44" cy="7.5" r="7.3"/><path class="g" d="M3.97,16.2h12.94c2.12,0,3.84,1.72,3.84,3.84v5.22H.13v-5.22c0-2.12,1.72-3.84,3.84-3.84Z"/></g><g><circle class="g" cx="32.56" cy="7.5" r="7.3"/><path class="g" d="M26.09,16.2h12.94c2.12,0,3.84,1.72,3.84,3.84v5.22H22.25v-5.22c0-2.12,1.72-3.84,3.84-3.84Z"/></g><g><g><path class="e" d="M21.58,20.63c-5.14,0-9.33-4.18-9.33-9.33S16.44,1.98,21.58,1.98s9.33,4.18,9.33,9.33-4.18,9.33-9.33,9.33Z"/><path class="f" d="M21.58,2.48c4.88,0,8.83,3.95,8.83,8.83s-3.95,8.83-8.83,8.83-8.83-3.95-8.83-8.83S16.71,2.48,21.58,2.48m0-1c-5.42,0-9.83,4.41-9.83,9.83s4.41,9.83,9.83,9.83,9.83-4.41,9.83-9.83S27,1.48,21.58,1.48h0Z"/></g><g><path class="d" d="M8.61,33.29v-6.82c0-2.84,2.31-5.15,5.15-5.15h15.65c2.84,0,5.15,2.31,5.15,5.15v6.82H8.61Z"/><path class="f" d="M29.41,21.83c2.57,0,4.65,2.08,4.65,4.65v6.32H9.11v-6.32c0-2.57,2.08-4.65,4.65-4.65h15.65m0-1H13.76c-3.11,0-5.65,2.53-5.65,5.65v7.32h26.94v-7.32c0-3.11-2.53-5.65-5.65-5.65h0Z"/></g></g></svg>