<?xml version="1.0" encoding="UTF-8"?><svg id="a" xmlns="http://www.w3.org/2000/svg" xmlns:xlink="http://www.w3.org/1999/xlink" viewBox="0 0 31.37 31.73"><defs><style>.c{fill:url(#b);}.d{fill:#fff;}.e{fill:#1a1f71;}</style><linearGradient id="b" x1="0" y1="15.85" x2="31.37" y2="15.85" gradientTransform="matrix(1, 0, 0, 1, 0, 0)" gradientUnits="userSpaceOnUse"><stop offset="0" stop-color="#fa9b00"/><stop offset="1" stop-color="#f4ca12"/></linearGradient></defs><rect class="c" y=".17" width="31.37" height="31.37"/><g><g><path class="e" d="M20.67,27.79v-3.35h-2.18v3.35l-.42-.18c-1.38-.6-2.27-1.96-2.27-3.46s.86-2.82,2.2-3.43V10.39c-1.33-.62-2.17-1.94-2.17-3.42s.89-2.86,2.27-3.46l.42-.18v3.35h2.18V3.33l.42,.18c1.38,.6,2.27,1.96,2.27,3.46s-.84,2.79-2.17,3.42v10.35c1.3,.63,2.14,1.94,2.14,3.4s-.89,2.87-2.27,3.46l-.42,.18Z"/><g><path class="d" d="M20.02,20.05c0,.19-.19,.34-.42,.34h0c-.23,0-.42-.15-.42-.34V11.07c0-.19,.19-.34,.42-.34h0c.23,0,.42,.15,.42,.34v8.98Z"/><path class="d" d="M19.6,20.69c-.39,0-.72-.29-.72-.64V11.07c0-.35,.32-.64,.72-.64s.72,.29,.72,.64v8.98c0,.35-.32,.64-.72,.64Z"/></g></g><g><path class="e" d="M10.56,28.24c-1.43,0-1.81-.97-1.81-1.48v-8.41h-.77v-1.98h5.15v1.98h-.77v8.41c0,.51-.38,1.48-1.81,1.48Z"/><path class="e" d="M11.29,16.97h-1.51V6.24c-.65-.76-.54-2.3-.52-2.48l.02-.27h2.52l.02,.27c.01,.18,.12,1.72-.52,2.48v10.73Z"/><g><rect class="d" x="10.74" y="18.33" width=".59" height="7.93"/><rect class="d" x="9.77" y="18.34" width=".59" height="7.93"/></g></g></g></svg>