<?xml version="1.0" encoding="UTF-8"?><svg id="a" xmlns="http://www.w3.org/2000/svg" xmlns:xlink="http://www.w3.org/1999/xlink" viewBox="0 0 34 30.9"><defs><style>.c{fill:url(#b);}.d{fill:#1a1f71;}</style><linearGradient id="b" x1="1.73" y1="15.34" x2="32.26" y2="15.34" gradientTransform="matrix(1, 0, 0, 1, 0, 0)" gradientUnits="userSpaceOnUse"><stop offset="0" stop-color="#fa9b00"/><stop offset="1" stop-color="#f4ca12"/></linearGradient></defs><path class="c" d="M32.26,10.5c0-4.24-2.06-8.35-7.21-8.35s-8.06,4.27-8.06,4.27c0,0-2.92-4.27-8.06-4.27S1.57,5.75,1.74,10.5c.15,4.24,8.76,13.69,15.26,18.03h0c6.5-4.33,15.26-13.79,15.26-18.03Z"/><path class="d" d="M25.06,1.15c-3.91,0-6.75,2.37-8.06,3.74-1.31-1.37-4.15-3.74-8.06-3.74C3.34,1.15,.74,5.91,.74,9.13H2.74c0-2.41,1.97-5.98,6.21-5.98s7.22,3.82,7.25,3.86l.8,1.09,.81-1.09s2.9-3.86,7.25-3.86,6.21,3.57,6.21,5.98c0,.96-.2,1.98-.58,3.05h-6.76l-2.91-2.91-4.42,4.42-6.6-6.6-4.92,4.92H1.08l.57,1.38c1.05,2.55,3.04,5.31,5.92,8.19,5.16,5.16,8.71,7.66,8.86,7.76l.57,.4,.57-.4c.15-.1,3.7-2.6,8.86-7.76,1.7-1.7,3.09-3.36,4.15-4.94h-2.46c-.86,1.14-1.91,2.32-3.11,3.52-3.85,3.85-6.82,6.21-8.02,7.11-1.2-.91-4.17-3.27-8.02-7.11-2.17-2.17-3.78-4.23-4.83-6.16h1.75l4.09-4.09,6.6,6.6,4.42-4.42,2.08,2.08h8.95l.29-.72c.62-1.49,.94-2.95,.94-4.33,0-3.22-2.61-7.98-8.21-7.98Z"/></svg>