<?xml version="1.0" encoding="UTF-8"?><svg id="a" xmlns="http://www.w3.org/2000/svg" xmlns:xlink="http://www.w3.org/1999/xlink" viewBox="0 0 45 32"><defs><style>.c{fill:url(#b);}.d{fill:#fff;}.e{fill:#1a1f71;}</style><linearGradient id="b" x1="5.37" y1="13.66" x2="40.02" y2="13.66" gradientTransform="matrix(1, 0, 0, 1, 0, 0)" gradientUnits="userSpaceOnUse"><stop offset="0" stop-color="#fa9b00"/><stop offset="1" stop-color="#f4ca12"/></linearGradient></defs><g><g><path class="c" d="M9.19,.81h27.01c2.11,0,3.82,1.71,3.82,3.82V22.69c0,2.11-1.71,3.82-3.82,3.82H9.19c-2.11,0-3.82-1.71-3.82-3.82V4.64c0-2.11,1.71-3.82,3.82-3.82Z"/><path class="e" d="M36.2,1.56c1.7,0,3.07,1.38,3.07,3.07V22.69c0,1.7-1.38,3.07-3.07,3.07H9.19c-1.7,0-3.07-1.38-3.07-3.07V4.64c0-1.7,1.38-3.07,3.07-3.07h27.01m0-1.5H9.19C6.67,.06,4.62,2.11,4.62,4.64V22.69c0,2.52,2.05,4.57,4.57,4.57h27.01c2.52,0,4.57-2.05,4.57-4.57V4.64c0-2.52-2.05-4.57-4.57-4.57h0Z"/></g><path class="e" d="M41.51,31.94H3.49c-1.84,0-3.33-1.49-3.33-3.33H44.84c0,1.84-1.49,3.33-3.33,3.33Z"/><rect class="d" x="10.81" y="7.49" width="23.98" height="1.73"/><rect class="d" x="10.81" y="11.9" width="23.98" height="1.73"/><rect class="d" x="10.81" y="16.3" width="11.99" height="1.73"/></g><polygon class="e" points="33.78 11.83 27.64 17.96 24.36 14.68 22.5 16.53 27.64 21.67 29.49 19.82 35.63 13.68 33.78 11.83"/></svg>